<?xml version="1.0" encoding="UTF-8" standalone="no"?>
<!-- Created with Inkscape (http://www.inkscape.org/) -->

<svg
   xmlns:dc="http://purl.org/dc/elements/1.1/"
   xmlns:cc="http://creativecommons.org/ns#"
   xmlns:rdf="http://www.w3.org/1999/02/22-rdf-syntax-ns#"
   xmlns:svg="http://www.w3.org/2000/svg"
   xmlns="http://www.w3.org/2000/svg"
   xmlns:sodipodi="http://sodipodi.sourceforge.net/DTD/sodipodi-0.dtd"
   xmlns:inkscape="http://www.inkscape.org/namespaces/inkscape"
   width="210mm"
   height="297mm"
   viewBox="0 0 744.09448819 1052.3622047"
   id="svg2"
   version="1.1"
   inkscape:version="0.91 r13725"
   sodipodi:docname="cupholder.svg">
  <defs
     id="defs4" />
  <sodipodi:namedview
     id="base"
     pagecolor="#ffffff"
     bordercolor="#666666"
     borderopacity="1.0"
     inkscape:pageopacity="0.0"
     inkscape:pageshadow="2"
     inkscape:zoom="0.98994949"
     inkscape:cx="-65"
     inkscape:cy="577.14286"
     inkscape:document-units="px"
     inkscape:current-layer="g3363"
     showgrid="false"
     inkscape:window-width="2560"
     inkscape:window-height="1390"
     inkscape:window-x="0"
     inkscape:window-y="24"
     inkscape:window-maximized="0" />
  <metadata
     id="metadata7">
    <rdf:RDF>
      <cc:Work
         rdf:about="">
        <dc:format>image/svg+xml</dc:format>
        <dc:type
           rdf:resource="http://purl.org/dc/dcmitype/StillImage" />
        <dc:title></dc:title>
      </cc:Work>
    </rdf:RDF>
  </metadata>
  <g
     inkscape:label="Layer 1"
     inkscape:groupmode="layer"
     id="layer1">
    <g
       transform="matrix(1.25,0,0,-1.25,-61.678569,940.63004)"
       inkscape:label="Cupholder"
       id="g3363">
      <text
         id="text3369"
         style="font-variant:normal;font-weight:normal;font-stretch:normal;font-size:12px;font-family:'Century Gothic';-inkscape-font-specification:CenturyGothic;writing-mode:lr-tb;fill:#000000;fill-opacity:1;fill-rule:nonzero;stroke:none"
         transform="matrix(1.000301,0,0,-1,244.0691,308.8212)">
        <tspan
           id="tspan3371"
           sodipodi:role="line"
           y="0"
           x="0 6.650001 13.300002 19.950003"
           style="-inkscape-font-specification:cmr10;font-family:cmr10;font-weight:normal;font-style:normal;font-stretch:normal;font-variant:normal">110</tspan>
      </text>
      <text
         id="text3373"
         style="font-variant:normal;font-weight:normal;font-stretch:normal;font-size:12px;font-family:'Century Gothic';-inkscape-font-specification:CenturyGothic;writing-mode:lr-tb;fill:#000000;fill-opacity:1;fill-rule:nonzero;stroke:none"
         transform="matrix(1.0003,0,0,-1,222.9731,273.1572)">
        <tspan
           id="tspan3375"
           sodipodi:role="line"
           y="0"
           x="0 6.6499944"
           style="-inkscape-font-specification:cmr10;font-family:cmr10;font-weight:normal;font-style:normal;font-stretch:normal;font-variant:normal">2</tspan>
      </text>
      <text
         id="text3377"
         style="font-variant:normal;font-weight:normal;font-stretch:normal;font-size:12px;font-family:'Century Gothic';-inkscape-font-specification:CenturyGothic;writing-mode:lr-tb;fill:#000000;fill-opacity:1;fill-rule:nonzero;stroke:none"
         transform="matrix(1.000301,0,0,-1,144.0491,436.8252)">
        <tspan
           id="tspan3379"
           sodipodi:role="line"
           y="0"
           x="0 6.650001 13.300002"
           style="-inkscape-font-specification:cmr10;font-family:cmr10;font-weight:normal;font-style:normal;font-stretch:normal;font-variant:normal">69</tspan>
      </text>
      <g
         transform="translate(175.2,528.7)"
         id="g3381">
        <path
           inkscape:connector-curvature="0"
           id="path3383"
           style="fill:none;stroke:#808080;stroke-width:0.50999999;stroke-linecap:butt;stroke-linejoin:miter;stroke-miterlimit:10;stroke-dasharray:none;stroke-opacity:1"
           d="M 0,0 0,0.5 -0.1,1 -0.3,1.5 -0.5,1.9 -0.7,2.3 -1,2.7 -1.3,3 -1.7,3.3 -2.1,3.6 -2.6,3.8 -3,3.9 -3.5,4 -4,4 -4.5,4 -4.9,3.9 -5.4,3.8 -5.9,3.6 -6.3,3.3 -6.6,3 -7,2.7 -7.3,2.3 -7.5,1.9 -7.7,1.5 -7.9,1 -8,0.5 -8,0 l 0,-0.4 0.1,-0.5 0.2,-0.5 0.2,-0.4 0.2,-0.4 0.3,-0.4 0.4,-0.4 0.3,-0.3 0.4,-0.2 0.5,-0.2 0.5,-0.2 0.4,0 0.5,-0.1 0.5,0.1 0.5,0 0.4,0.2 0.5,0.2 0.4,0.2 0.4,0.3 0.3,0.4 0.3,0.4 0.2,0.4 0.2,0.4 0.2,0.5 L 0,-0.4 0,0 m -6.3,-5.7 4.6,11.4" />
      </g>
      <text
         id="text3385"
         style="font-variant:normal;font-weight:normal;font-stretch:normal;font-size:12px;font-family:'Century Gothic';-inkscape-font-specification:CenturyGothic;writing-mode:lr-tb;fill:#808080;fill-opacity:1;fill-rule:nonzero;stroke:none"
         transform="matrix(1.000301,0,0,-1,177.8583,524.3835)">
        <tspan
           id="tspan3387"
           sodipodi:role="line"
           y="0"
           x="0 6.650001 13.300002"
           style="-inkscape-font-specification:cmr10;font-family:cmr10;font-weight:normal;font-style:normal;font-stretch:normal;font-variant:normal">59</tspan>
      </text>
      <text
         id="text3389"
         style="font-variant:normal;font-weight:normal;font-stretch:normal;font-size:12px;font-family:'Times New Roman';-inkscape-font-specification:TimesNewRoman;writing-mode:lr-tb;fill:#000000;fill-opacity:1;fill-rule:nonzero;stroke:none"
         transform="matrix(1.0005,0,0,-1,495.9423,462.4275)">
        <tspan
           id="tspan3391"
           sodipodi:role="line"
           y="0"
           x="0 7.3356662 12.66633 18.669331"
           style="-inkscape-font-specification:cmr10;font-family:cmr10;font-weight:normal;font-style:normal;font-stretch:normal;font-variant:normal">Tape</tspan>
      </text>
      <text
         id="text3393"
         style="font-variant:normal;font-weight:normal;font-stretch:normal;font-size:12px;font-family:'Times New Roman';-inkscape-font-specification:TimesNewRoman;writing-mode:lr-tb;fill:#000000;fill-opacity:1;fill-rule:nonzero;stroke:none"
         transform="matrix(0.999902,0,0,-1,473.2383,671.4435)">
        <tspan
           id="tspan3395"
           sodipodi:role="line"
           y="0"
           x="0 6.6713462 12.670758 17.998236"
           style="-inkscape-font-specification:cmr10;font-family:cmr10;font-weight:normal;font-style:normal;font-stretch:normal;font-variant:normal">Foam</tspan>
      </text>
      <g
         transform="translate(254,240.1)"
         id="g3457">
        <path
           inkscape:connector-curvature="0"
           id="path3459"
           style="fill:none;stroke:#000000;stroke-width:0.50999999;stroke-linecap:butt;stroke-linejoin:miter;stroke-miterlimit:10;stroke-dasharray:none;stroke-opacity:1"
           d="M 0,0 -1.4,9.3 1.4,9.3 0,0 m 0,155.9 1.4,-9.4 -2.8,0 1.4,9.4 M -52.4,0 -53.8,9.3 -51,9.3 -52.4,0 m 0,2.8 1.4,-9.4 -2.8,0 1.4,9.4 m -114.1,198.4 9.3,1.5 0,-2.9 -9.3,1.4 m 97.8,0 -9.4,-1.4 0,2.9 9.4,-1.5" />
      </g>
      <g
         transform="translate(160.9,536)"
         id="g3461">
        <path
           inkscape:connector-curvature="0"
           id="path3463"
           style="fill:none;stroke:#808080;stroke-width:0.50999999;stroke-linecap:butt;stroke-linejoin:miter;stroke-miterlimit:10;stroke-dasharray:none;stroke-opacity:1"
           d="m 0,0 -0.4,-0.9 -0.4,-0.9 -0.3,-1 -0.2,-0.9 -0.2,-1 -0.1,-1 -0.1,-1 0,-1 0.1,-1 0.1,-1 0.2,-1 0.2,-0.9 0.3,-1 0.4,-0.9 0.4,-0.9 m 33.5,0 0.5,0.9 0.3,0.9 0.3,1 0.3,0.9 0.1,1 0.2,1 0,1 0,1 0,1 -0.2,1 -0.1,1 -0.3,0.9 -0.3,1 L 34,-0.9 33.5,0 m -59,151.6 -1.1,-9.4 2.9,0.1 -1.8,9.3 m 3.1,-83.6 1.1,9.4 -2.9,-0.1 1.8,-9.3" />
      </g>
      <g
         transform="translate(494.4,466.7)"
         id="g3465">
        <path
           inkscape:connector-curvature="0"
           id="path3467"
           style="fill:none;stroke:#000000;stroke-width:0.50999999;stroke-linecap:round;stroke-linejoin:round;stroke-miterlimit:10;stroke-dasharray:none;stroke-opacity:1"
           d="m 0,0 -17.7,0 m 0,0 -27.1,72.9 m 22.1,136.2 -17.7,0 m 0,0 -36.6,-38.8" />
      </g>
      <g
         transform="translate(136.9704,260.9381)"
         id="g3469">
        <path
           inkscape:connector-curvature="0"
           id="path3471"
           style="fill:none;stroke:#808080;stroke-width:0.50999999;stroke-linecap:round;stroke-linejoin:round;stroke-miterlimit:10;stroke-dasharray:43.2, 3.6, 3.6, 3.6;stroke-dashoffset:29.18300056;stroke-opacity:1"
           d="M 0,0 0,-38.835" />
      </g>
      <g
         transform="translate(440.7554,242.9381)"
         id="g3473">
        <path
           inkscape:connector-curvature="0"
           id="path3475"
           style="fill:none;stroke:#808080;stroke-width:0.50999999;stroke-linecap:round;stroke-linejoin:round;stroke-miterlimit:10;stroke-dasharray:43.2, 3.6, 3.6, 3.6;stroke-dashoffset:38.18299866;stroke-opacity:1"
           d="M 0,0 0,-20.835" />
      </g>
      <g
         transform="translate(440.7554,414.009)"
         id="g3477">
        <path
           inkscape:connector-curvature="0"
           id="path3479"
           style="fill:none;stroke:#808080;stroke-width:0.50999999;stroke-linecap:round;stroke-linejoin:round;stroke-miterlimit:10;stroke-dasharray:43.2, 3.6, 3.6, 3.6;stroke-dashoffset:17.06500053;stroke-opacity:1"
           d="M 0,0 0,-171.071" />
      </g>
      <g
         transform="translate(380.9443,190.2272)"
         id="g3481">
        <path
           inkscape:connector-curvature="0"
           id="path3483"
           style="fill:none;stroke:#808080;stroke-width:0.50999999;stroke-linecap:round;stroke-linejoin:round;stroke-miterlimit:10;stroke-dasharray:43.2, 3.6, 3.6, 3.6;stroke-dashoffset:15.78899956;stroke-opacity:1"
           d="M 0,0 119.622,0" />
      </g>
      <g
         transform="translate(182.3,240.1)"
         id="g3489">
        <path
           inkscape:connector-curvature="0"
           id="path3491"
           style="fill:none;stroke:#000000;stroke-width:0.50999999;stroke-linecap:round;stroke-linejoin:round;stroke-miterlimit:10;stroke-dasharray:none;stroke-opacity:1"
           d="M 0,0 80.7,0 M 0,155.9 l 80.7,0 M 71.7,0 l 0,66.1 m 0,89.8 0,-75.5 M -41.8,0 28.3,0 m -70.1,2.8 70.1,0 m 9,34.7 -18,0 m 0,0 0,-34.7 m 0,-2.8 0,2.8 M -94.8,5 l 0,205.2 M 3,5 3,210.2 m -97.8,-9 53.2,0 m 44.6,0 -24.7,0" />
      </g>
      <g
         transform="translate(138.5,604)"
         id="g3493">
        <path
           inkscape:connector-curvature="0"
           id="path3495"
           style="fill:none;stroke:#808080;stroke-width:0.50999999;stroke-linecap:round;stroke-linejoin:round;stroke-miterlimit:10;stroke-dasharray:none;stroke-opacity:1"
           d="M 0,0 2.7,-73.4 M -3.1,83.6 0,0 m 2.7,-73.4 18,0" />
      </g>
      <g
         transform="translate(449.2,540.5)"
         id="g3497">
        <path
           inkscape:connector-curvature="0"
           id="path3499"
           style="fill:#000000;fill-opacity:1;fill-rule:nonzero;stroke:none"
           d="m 0,0 -0.2,-0.1 -0.2,-0.2 -0.1,-0.2 -0.1,-0.2 0,-0.2 0,-0.3 0.1,-0.2 0.2,-0.2 0.2,-0.1 0.2,-0.1 0.2,0 0.3,0 0.2,0.1 0.2,0.1 0.2,0.2 0.1,0.2 0,0.2 0,0.3 L 1.2,-0.5 1.1,-0.3 0.9,-0.1 0.7,0 0.5,0.1 0.3,0.1 0,0 0.4,-0.9 m -32.9,96.7 0.2,-0.1 0.3,-0.1 0.2,0 0.2,0 0.3,0.1 0.2,0.1 0.1,0.2 0.1,0.2 0.1,0.3 -0.1,0.2 0,0.2 -0.2,0.2 -0.1,0.2 -0.2,0.1 -0.3,0.1 -0.2,0 -0.3,-0.1 -0.2,-0.1 -0.1,-0.2 -0.2,-0.2 0,-0.2 -0.1,-0.2 0.1,-0.3 0.1,-0.2 0.1,-0.2 0.7,0.7" />
      </g>
      <g
         transform="translate(254,240.1)"
         id="g3501">
        <path
           inkscape:connector-curvature="0"
           id="path3503"
           style="fill:#000000;fill-opacity:1;fill-rule:nonzero;stroke:none"
           d="m 0,0 -1.4,9.3 2.8,0 M 0,155.9 l 1.4,-9.4 -2.8,0 M -52.4,0 l -1.4,9.3 2.8,0 m -1.4,-6.5 1.4,-9.4 -2.8,0 m -112.7,207.8 9.3,1.5 0,-2.9 m 88.5,1.4 -9.4,-1.4 0,2.9" />
      </g>
      <g
         transform="translate(135.4,687.6)"
         id="g3505">
        <path
           inkscape:connector-curvature="0"
           id="path3507"
           style="fill:#808080;fill-opacity:1;fill-rule:nonzero;stroke:none"
           d="m 0,0 -1.1,-9.4 2.9,0.1 m 1.3,-74.3 1.1,9.4 -2.9,-0.1" />
      </g>
      <g
         transform="translate(185.8,242.9)"
         id="g3509">
        <path
           inkscape:connector-curvature="0"
           id="path3511"
           style="fill:none;stroke:#000000;stroke-width:0.70899999;stroke-linecap:round;stroke-linejoin:round;stroke-miterlimit:10;stroke-dasharray:none;stroke-opacity:1"
           d="m 0,0 0,153.1 m 0,-163 0,7.1 m -97.8,0 0,-7.1 m 0,163 0,-153.1 m -0.5,-1.4 -2.9,-2.9 -2.6,-3 -2.5,-3.1 -2.3,-3.3 -2.1,-3.4 -1.9,-3.6 -1.8,-3.6 -1.5,-3.7 -1.3,-3.8 -1,-3.9 -0.9,-3.9 -0.6,-4 -0.4,-4 -0.2,-4 0,-4 0.3,-4 0.5,-4 0.8,-3.9 0.9,-3.9 1.2,-3.9 1.4,-3.8 1.6,-3.6 1.8,-3.6 2,-3.5 2.2,-3.4 2.4,-3.2 2.5,-3.1 2.7,-2.9 2.9,-2.8 3.1,-2.6 3.2,-2.5 3.3,-2.2 3.5,-2.1 3.5,-1.8 3.7,-1.7 3.7,-1.4 3.8,-1.3 3.9,-1 4,-0.8 3.9,-0.5 4,-0.4 4.1,-0.1 4,0.1 4,0.4 3.9,0.5 4,0.8 3.9,1 3.8,1.3 3.7,1.4 3.7,1.7 3.6,1.8 3.4,2.1 3.3,2.2 3.2,2.5 3.1,2.6 2.9,2.8 2.7,2.9 2.6,3.1 2.3,3.2 2.2,3.4 2,3.5 1.9,3.6 1.5,3.6 1.4,3.8 1.2,3.9 1,3.9 0.7,3.9 0.5,4 0.3,4 0,4 -0.2,4 -0.4,4 -0.6,4 -0.9,3.9 -1,3.9 -1.3,3.8 -1.5,3.7 -1.7,3.6 -2,3.6 -2.1,3.4 -2.3,3.3 -2.5,3.1 -2.6,3 -2.8,2.9 m 0,0 -23,0 m -50.7,0 -24.1,0 M 0,0 -23.5,0 m -50.7,0 -24.7,0 m 0,0 -2.9,-2.9 -2.7,-3 -2.5,-3.2 -2.4,-3.3 -2.2,-3.4 -2,-3.5 -1.7,-3.7 -1.6,-3.7 -1.3,-3.9 -1.2,-3.9 -0.9,-3.9 -0.7,-4 -0.5,-4.1 -0.2,-4 0,-4.1 0.2,-4 0.5,-4.1 0.6,-4 0.9,-3.9 1.1,-3.9 1.4,-3.9 1.5,-3.7 1.8,-3.7 1.9,-3.5 2.2,-3.5 2.3,-3.3 2.6,-3.2 2.7,-3 2.8,-2.9 3.1,-2.7 3.1,-2.5 3.3,-2.4 3.5,-2.2 3.5,-1.9 3.7,-1.8 3.7,-1.5 3.9,-1.4 3.9,-1.1 3.9,-0.9 4,-0.7 4.1,-0.4 4,-0.3 4.1,0 4,0.3 4.1,0.4 4,0.7 3.9,0.9 3.9,1.1 3.9,1.4 3.7,1.5 3.7,1.8 3.5,1.9 3.5,2.2 3.3,2.4 3.2,2.5 3,2.7 2.8,2.9 2.7,3 2.6,3.2 2.3,3.3 2.2,3.5 1.9,3.5 1.8,3.7 1.5,3.7 1.4,3.9 1.1,3.9 0.9,3.9 0.7,4 0.4,4.1 0.2,4 0,4.1 -0.2,4 -0.5,4.1 -0.7,4 -0.9,3.9 -1.1,3.9 -1.4,3.9 -1.6,3.7 -1.7,3.7 -2,3.5 -2.2,3.4 -2.3,3.3 -2.6,3.2 -2.7,3 L 0,0 m -74.2,-2.8 -2.8,0 -2.7,0 -2.5,0 -2.4,0 -2.2,0 -2,0 -1.8,0 -1.7,0 -1.4,0 -1.2,0 -1.1,0 -0.8,0 -0.5,0 -0.4,0 -0.1,0 m 23.6,0 0,2.8 m 25.3,-9.9 3.4,0 3.3,0 3.3,0 3.2,0 3.2,0 3.1,0 3,0 2.9,0 2.8,0 2.7,0 2.5,0 2.4,0 2.2,0 2,0 1.8,0 1.6,0 1.5,0 1.2,0 1,0 0.8,0 0.6,0 0.3,0 0.1,0 m -97.8,0 0.1,0 0.4,0 0.5,0 0.8,0 1,0 1.3,0 1.4,0 1.6,0 1.9,0 2,0 2.2,0 2.3,0 2.6,0 2.6,0 2.8,0 2.9,0 3,0 3.1,0 3.2,0 3.3,0 3.3,0 3.3,0 3.3,0 m 0,163 3.4,0 3.3,0 3.3,0 3.2,0 3.2,0 3.1,0 3,0 2.9,0 2.8,0 2.7,0 2.5,0 2.4,0 2.2,0 2,0 1.8,0 1.6,0 1.5,0 1.2,0 1,0 0.8,0 0.6,0 0.3,0 0.1,0 m -97.8,0 0.1,0 0.4,0 0.5,0 0.8,0 1,0 1.3,0 1.4,0 1.6,0 1.9,0 2,0 2.2,0 2.3,0 2.6,0 2.6,0 2.8,0 2.9,0 3,0 3.1,0 3.2,0 3.3,0 3.3,0 3.3,0 3.3,0 M -23.5,0 l 0,-2.8 m 23.5,0 -0.1,0 -0.3,0 -0.6,0 -0.8,0 -1,0 -1.2,0 -1.5,0 -1.6,0 -1.9,0 -2,0 -2.2,0 -2.3,0 -2.6,0 -2.6,0 -2.8,0" />
      </g>
      <g
         transform="translate(162.3242,241.5208)"
         id="g3513">
        <path
           inkscape:connector-curvature="0"
           id="path3515"
           style="fill:none;stroke:#000000;stroke-width:0.50999999;stroke-linecap:round;stroke-linejoin:round;stroke-miterlimit:10;stroke-dasharray:3.6, 1.8;stroke-dashoffset:0.74599999;stroke-opacity:1"
           d="M 0,0 -50.708,0" />
      </g>
      <g
         transform="translate(162.3242,242.9381)"
         id="g3517">
        <path
           inkscape:connector-curvature="0"
           id="path3519"
           style="fill:none;stroke:#000000;stroke-width:0.50999999;stroke-linecap:round;stroke-linejoin:round;stroke-miterlimit:10;stroke-dasharray:3.6, 1.8;stroke-dashoffset:0.74599999;stroke-opacity:1"
           d="M 0,0 -50.708,0" />
      </g>
      <g
         transform="translate(111.6166,240.1035)"
         id="g3521">
        <path
           inkscape:connector-curvature="0"
           id="path3523"
           style="fill:none;stroke:#000000;stroke-width:0.50999999;stroke-linecap:round;stroke-linejoin:round;stroke-miterlimit:10;stroke-dasharray:3.6, 1.8;stroke-dashoffset:0.74599999;stroke-opacity:1"
           d="M 0,0 50.708,0" />
      </g>
      <g
         transform="translate(136.9704,242.9381)"
         id="g3525">
        <path
           inkscape:connector-curvature="0"
           id="path3527"
           style="fill:none;stroke:#000000;stroke-width:0.50999999;stroke-linecap:round;stroke-linejoin:round;stroke-miterlimit:10;stroke-dasharray:3.6, 1.8;stroke-dashoffset:-0.077;stroke-opacity:1"
           d="M 0,0 25.354,0" />
      </g>
      <g
         transform="translate(111.6166,242.9381)"
         id="g3529">
        <path
           inkscape:connector-curvature="0"
           id="path3531"
           style="fill:none;stroke:#000000;stroke-width:0.50999999;stroke-linecap:round;stroke-linejoin:round;stroke-miterlimit:10;stroke-dasharray:3.6, 1.8;stroke-dashoffset:-0.077;stroke-opacity:1"
           d="M 0,0 25.354,0" />
      </g>
      <g
         transform="translate(178.7814,242.9381)"
         id="g3533">
        <path
           inkscape:connector-curvature="0"
           id="path3535"
           style="fill:none;stroke:#000000;stroke-width:0.50999999;stroke-linecap:round;stroke-linejoin:round;stroke-miterlimit:10;stroke-dasharray:3.6, 1.8;stroke-dashoffset:0.86500001;stroke-opacity:1"
           d="M 0,0 0,153.071" />
      </g>
      <g
         transform="translate(95.1594,396.009)"
         id="g3537">
        <path
           inkscape:connector-curvature="0"
           id="path3539"
           style="fill:none;stroke:#000000;stroke-width:0.50999999;stroke-linecap:round;stroke-linejoin:round;stroke-miterlimit:10;stroke-dasharray:3.6, 1.8;stroke-dashoffset:0.86500001;stroke-opacity:1"
           d="M 0,0 0,-153.071" />
      </g>
      <g
         transform="translate(398.9,117.9)"
         id="g3541">
        <path
           inkscape:connector-curvature="0"
           id="path3543"
           style="fill:none;stroke:#000000;stroke-width:0.70899999;stroke-linecap:round;stroke-linejoin:round;stroke-miterlimit:10;stroke-dasharray:none;stroke-opacity:1"
           d="m 0,0 83.6,0 m 7.1,115.1 0,163 m -97.8,0 0,-163 M 0,0 0,0 0,0.3 0,0.7 0,1.4 0,2.3 0,3.4 0,4.8 0,6.3 0,8.1 0,10 l 0,2.2 0,2.4 0,2.5 0,2.7 0,2.9 0,3 0,3.2 0,3.3 0,3.5 0,3.5 0,3.7 0,3.7 0,3.9 0,3.9 0,3.9 0,4 0,4.1 0,4 0,4.1 0,4 0,4.1 0,4 0,3.9 0,3.9 0,3.9 0,3.7 0,3.7 0,3.5 0,3.4 0,3.3 0,3.2 0,3 0,2.9 m 0,0 83.6,0 m 0,-125 0,0 0,0.3 0,0.4 0,0.7 0,0.9 0,1.1 0,1.4 0,1.5 0,1.8 0,1.9 0,2.2 0,2.4 0,2.5 0,2.7 0,2.9 0,3 0,3.2 0,3.3 0,3.5 0,3.5 0,3.7 0,3.7 0,3.9 0,3.9 0,3.9 0,4 0,4.1 0,4 0,4.1 0,4 0,4.1 0,4 0,3.9 0,3.9 0,3.9 0,3.7 0,3.7 0,3.5 0,3.4 0,3.3 0,3.2 0,3 0,2.9 m -90.7,-9.9 0.1,0 0.4,0 0.5,0 0.8,0 1,0 1.3,0 1.4,0 1.6,0 m 83.6,0 1.6,0 1.5,0 1.2,0 1,0 0.8,0 0.5,0 0.4,0 0.1,0 m -97.8,163 0.1,0 0.4,0 0.5,0 0.8,0 1,0 1.3,0 1.4,0 1.6,0 1.9,0 2,0 2.2,0 2.3,0 2.5,0 2.7,0 2.8,0 2.9,0 3,0 3.1,0 3.2,0 3.3,0 3.2,0 3.4,0 3.3,0 3.3,0 3.4,0 3.3,0 3.2,0 3.2,0 3.1,0 3,0 2.9,0 2.8,0 2.7,0 2.5,0 2.3,0 2.2,0 2.1,0 1.8,0 1.6,0 1.5,0 1.2,0 1,0 0.8,0 0.5,0 0.4,0 0.1,0" />
      </g>
      <g
         transform="translate(398.9443,241.5208)"
         id="g3545">
        <path
           inkscape:connector-curvature="0"
           id="path3547"
           style="fill:none;stroke:#000000;stroke-width:0.50999999;stroke-linecap:round;stroke-linejoin:round;stroke-miterlimit:10;stroke-dasharray:3.6, 1.8;stroke-dashoffset:0.48899999;stroke-opacity:1"
           d="M 0,0 83.622,0" />
      </g>
      <g
         transform="translate(398.9443,233.0169)"
         id="g3549">
        <path
           inkscape:connector-curvature="0"
           id="path3551"
           style="fill:none;stroke:#000000;stroke-width:0.50999999;stroke-linecap:round;stroke-linejoin:round;stroke-miterlimit:10;stroke-dasharray:3.6, 1.8;stroke-dashoffset:0.48899999;stroke-opacity:1"
           d="m 0,0 0.032,0 1.831,0 2.018,0 2.194,0 2.361,0 2.516,0 2.661,0 2.792,0 2.91,0 3.015,0 3.106,0 3.183,0 3.243,0 3.291,0 3.321,0 3.337,0 3.337,0 3.321,0 3.291,0 3.243,0 3.183,0 3.106,0 3.015,0 2.91,0 2.792,0 2.661,0 2.516,0 2.361,0 2.194,0 2.018,0 1.831,0 0.032,0" />
      </g>
      <g
         transform="translate(482.5664,240.1035)"
         id="g3553">
        <path
           inkscape:connector-curvature="0"
           id="path3555"
           style="fill:none;stroke:#000000;stroke-width:0.50999999;stroke-linecap:round;stroke-linejoin:round;stroke-miterlimit:10;stroke-dasharray:3.6, 1.8;stroke-dashoffset:0.48899999;stroke-opacity:1"
           d="m 0,0 -1.83,0 -2.017,0 -2.194,0 -2.362,0 -2.518,0 -2.662,0 -2.794,0 -2.912,0 -3.019,0 -3.109,0 -3.186,0 -3.247,0 -3.295,0 -3.325,0 -3.341,0 -3.341,0 -3.325,0 -3.295,0 -3.247,0 -3.186,0 -3.109,0 -3.019,0 -2.913,0 -2.793,0 -2.663,0 -2.517,0 -2.362,0 -2.194,0 -2.017,0 -1.83,0" />
      </g>
      <g
         transform="translate(398.9443,119.3611)"
         id="g3557">
        <path
           inkscape:connector-curvature="0"
           id="path3559"
           style="fill:none;stroke:#000000;stroke-width:0.50999999;stroke-linecap:round;stroke-linejoin:round;stroke-miterlimit:10;stroke-dasharray:3.6, 1.8;stroke-dashoffset:0.48899999;stroke-opacity:1"
           d="M 0,0 83.622,0" />
      </g>
      <g
         transform="translate(482.5664,242.9381)"
         id="g3561">
        <path
           inkscape:connector-curvature="0"
           id="path3563"
           style="fill:none;stroke:#000000;stroke-width:0.50999999;stroke-linecap:round;stroke-linejoin:round;stroke-miterlimit:10;stroke-dasharray:3.6, 1.8;stroke-dashoffset:0.86500001;stroke-opacity:1"
           d="M 0,0 0,153.071" />
      </g>
      <g
         transform="translate(398.9443,396.009)"
         id="g3565">
        <path
           inkscape:connector-curvature="0"
           id="path3567"
           style="fill:none;stroke:#000000;stroke-width:0.50999999;stroke-linecap:round;stroke-linejoin:round;stroke-miterlimit:10;stroke-dasharray:3.6, 1.8;stroke-dashoffset:0.86500001;stroke-opacity:1"
           d="M 0,0 0,-153.071" />
      </g>
      <g
         transform="translate(64.1,687.6)"
         id="g3569">
        <path
           inkscape:connector-curvature="0"
           id="path3571"
           style="fill:none;stroke:#000000;stroke-width:0.70899999;stroke-linecap:round;stroke-linejoin:round;stroke-miterlimit:10;stroke-dasharray:none;stroke-opacity:1"
           d="m 0,0 0,-83.6 m 144.5,0 0,83.6 M 22.8,-83.6 22.8,0 m 0,-83.6 -2.9,0 -2.7,0 -2.5,0 -2.4,0 -2.2,0 -2,0 -1.7,0 -1.6,0 -1.3,0 -1.2,0 -0.9,0 -0.7,0 -0.5,0 -0.2,0 m 144.5,0 0,0 -0.2,0 -0.5,0 -0.7,0 -0.9,0 -1.1,0 -1.4,0 -1.6,0 -1.7,0 -2,0 -2.2,0 -2.3,0 -2.6,0 -2.7,0 -2.9,0 m 0,0 0,83.6 M 22.8,0 19.9,0 17.2,0 14.7,0 12.3,0 10.1,0 8.1,0 6.4,0 4.8,0 3.5,0 2.3,0 1.4,0 0.7,0 0.2,0 0,0 m 144.5,0 0,0 -0.2,0 -0.5,0 -0.7,0 -0.9,0 -1.1,0 -1.4,0 -1.6,0 -1.7,0 -2,0 -2.2,0 -2.3,0 -2.6,0 -2.7,0 -2.9,0 m 0,-83.6 -23.5,0 m -50.7,0 -24.7,0 M 121.7,0 98.2,0 M 47.5,0 22.8,0 m 50,-83.6 3.1,0.1 3.1,0.4 3,0.5 3,0.8 2.9,1 2.9,1.3 2.7,1.4 2.6,1.6 2.5,1.8 2.4,2 2.2,2.2 2,2.3 1.9,2.5 1.7,2.6 1.4,2.7 1.3,2.8 1.1,2.9 0.8,3 0.7,3 0.4,3.1 0.1,3 0,3.1 -0.3,3.1 -0.5,3.1 -0.8,3 -0.9,2.9 -1.2,2.9 -1.4,2.7 -1.5,2.7 -1.8,2.5 -2,2.4 -2.1,2.3 -2.3,2 -2.4,1.9 -2.6,1.8 -2.7,1.5 -2.7,1.3 -2.9,1.1 -3,0.9 -3,0.7 -3.1,0.5 -3,0.2 -3.1,0 -3.1,-0.2 -3.1,-0.5 -3,-0.7 -2.9,-0.9 -2.9,-1.1 -2.8,-1.3 -2.7,-1.5 -2.6,-1.8 -2.4,-1.9 -2.3,-2 -2.1,-2.3 -1.9,-2.4 -1.8,-2.5 -1.6,-2.7 -1.4,-2.7 -1.1,-2.9 -1,-2.9 -0.7,-3 -0.5,-3.1 -0.3,-3.1 -0.1,-3.1 0.2,-3 0.4,-3.1 0.6,-3 0.9,-3 1,-2.9 1.3,-2.8 1.5,-2.7 1.6,-2.6 1.9,-2.5 2,-2.3 2.3,-2.2 2.3,-2 2.5,-1.8 2.6,-1.6 2.8,-1.4 2.8,-1.3 2.9,-1 3,-0.8 3.1,-0.5 3,-0.4 3.1,-0.1 m 0,-7.1 3.4,0.1 3.3,0.4 3.3,0.5 3.2,0.8 3.2,1 3.1,1.3 3,1.4 2.9,1.6 2.8,1.9 2.7,2 2.5,2.2 2.4,2.3 2.2,2.6 2,2.6 1.8,2.8 1.6,2.9 1.5,3 1.2,3.1 1,3.2 0.8,3.3 0.6,3.3 0.3,3.3 0.1,3.3 -0.1,3.4 -0.3,3.3 -0.6,3.3 -0.8,3.2 -1,3.2 -1.2,3.1 -1.5,3 -1.6,2.9 -1.8,2.8 -2,2.7 -2.2,2.5 -2.4,2.4 -2.5,2.1 L 101,-1.8 98.2,0 95.3,1.6 92.3,3.1 89.2,4.3 86,5.3 82.8,6.1 79.5,6.7 76.2,7 72.8,7.1 69.5,7 66.2,6.7 62.9,6.1 59.6,5.3 56.4,4.3 53.3,3.1 50.3,1.6 47.4,0 44.6,-1.8 42,-3.9 39.4,-6 l -2.3,-2.4 -2.2,-2.5 -2,-2.7 -1.9,-2.8 -1.6,-2.9 -1.4,-3 -1.3,-3.1 -1,-3.2 -0.8,-3.2 -0.5,-3.3 -0.4,-3.3 -0.1,-3.4 0.1,-3.3 0.4,-3.3 0.5,-3.3 0.8,-3.3 1,-3.2 1.3,-3.1 1.4,-3 1.6,-2.9 1.9,-2.8 2,-2.6 2.2,-2.6 2.3,-2.3 2.6,-2.2 2.6,-2 2.8,-1.9 2.9,-1.6 3,-1.4 3.1,-1.3 3.2,-1 3.3,-0.8 3.3,-0.5 3.3,-0.4 3.3,-0.1" />
      </g>
      <g
         transform="translate(162.3242,604.0558)"
         id="g3573">
        <path
           inkscape:connector-curvature="0"
           id="path3575"
           style="fill:none;stroke:#000000;stroke-width:0.50999999;stroke-linecap:round;stroke-linejoin:round;stroke-miterlimit:10;stroke-dasharray:3.6, 1.8;stroke-dashoffset:0.74599999;stroke-opacity:1"
           d="M 0,0 -50.708,0" />
      </g>
      <g
         transform="translate(162.3242,687.6778)"
         id="g3577">
        <path
           inkscape:connector-curvature="0"
           id="path3579"
           style="fill:none;stroke:#000000;stroke-width:0.50999999;stroke-linecap:round;stroke-linejoin:round;stroke-miterlimit:10;stroke-dasharray:3.6, 1.8;stroke-dashoffset:0.74599999;stroke-opacity:1"
           d="M 0,0 -50.708,0" />
      </g>
      <g
         transform="translate(87.5087,604.0558)"
         id="g3581">
        <path
           inkscape:connector-curvature="0"
           id="path3583"
           style="fill:none;stroke:#000000;stroke-width:0.50999999;stroke-linecap:round;stroke-linejoin:round;stroke-miterlimit:10;stroke-dasharray:3.6, 1.8;stroke-dashoffset:0.48899999;stroke-opacity:1"
           d="M 0,0 0,83.622" />
      </g>
      <g
         transform="translate(185.304,604.0558)"
         id="g3585">
        <path
           inkscape:connector-curvature="0"
           id="path3587"
           style="fill:none;stroke:#000000;stroke-width:0.50999999;stroke-linecap:round;stroke-linejoin:round;stroke-miterlimit:10;stroke-dasharray:3.6, 1.8;stroke-dashoffset:0.48899999;stroke-opacity:1"
           d="M 0,0 0,83.622" />
      </g>
      <g
         transform="translate(136.9704,687.6778)"
         id="g3589">
        <path
           inkscape:connector-curvature="0"
           id="path3591"
           style="fill:none;stroke:#000000;stroke-width:0.50999999;stroke-linecap:round;stroke-linejoin:round;stroke-miterlimit:10;stroke-dasharray:3.6, 1.8;stroke-dashoffset:-0.077;stroke-opacity:1"
           d="M 0,0 25.354,0" />
      </g>
      <g
         transform="translate(111.6166,687.6778)"
         id="g3593">
        <path
           inkscape:connector-curvature="0"
           id="path3595"
           style="fill:none;stroke:#000000;stroke-width:0.50999999;stroke-linecap:round;stroke-linejoin:round;stroke-miterlimit:10;stroke-dasharray:3.6, 1.8;stroke-dashoffset:-0.077;stroke-opacity:1"
           d="M 0,0 25.354,0" />
      </g>
      <g
         transform="translate(136.9704,604.0558)"
         id="g3597">
        <path
           inkscape:connector-curvature="0"
           id="path3599"
           style="fill:none;stroke:#000000;stroke-width:0.50999999;stroke-linecap:round;stroke-linejoin:round;stroke-miterlimit:10;stroke-dasharray:3.6, 1.8;stroke-dashoffset:-0.077;stroke-opacity:1"
           d="M 0,0 25.354,0" />
      </g>
      <g
         transform="translate(111.6166,604.0558)"
         id="g3601">
        <path
           inkscape:connector-curvature="0"
           id="path3603"
           style="fill:none;stroke:#000000;stroke-width:0.50999999;stroke-linecap:round;stroke-linejoin:round;stroke-miterlimit:10;stroke-dasharray:3.6, 1.8;stroke-dashoffset:-0.077;stroke-opacity:1"
           d="M 0,0 25.354,0" />
      </g>
      <g
         transform="translate(65.5402,687.6778)"
         id="g3605">
        <path
           inkscape:connector-curvature="0"
           id="path3607"
           style="fill:none;stroke:#000000;stroke-width:0.50999999;stroke-linecap:round;stroke-linejoin:round;stroke-miterlimit:10;stroke-dasharray:3.6, 1.8;stroke-dashoffset:0.48899999;stroke-opacity:1"
           d="M 0,0 0,-83.622" />
      </g>
      <g
         transform="translate(207.2725,604.0558)"
         id="g3609">
        <path
           inkscape:connector-curvature="0"
           id="path3611"
           style="fill:none;stroke:#000000;stroke-width:0.50999999;stroke-linecap:round;stroke-linejoin:round;stroke-miterlimit:10;stroke-dasharray:3.6, 1.8;stroke-dashoffset:0.48899999;stroke-opacity:1"
           d="M 0,0 0,83.622" />
      </g>
      <g
         transform="translate(343.4,596.6)"
         id="g3613">
        <path
           inkscape:connector-curvature="0"
           id="path3615"
           style="fill:none;stroke:#000000;stroke-width:0.70899999;stroke-linecap:round;stroke-linejoin:round;stroke-miterlimit:10;stroke-dasharray:none;stroke-opacity:1"
           d="M 0,0 -17.2,-9.9 M 55,-135.1 114.2,-101 m -16.4,88.4 0,124.9 M 0,-19.7 l 0,-1 m 0,133 0,-124.9 M -16.1,-9.3 0,0 m -16.1,-9.3 -2.4,-1.4 -2.3,-1.7 -2,-2 -1.9,-2.2 -1.7,-2.5 -1.5,-2.7 -1.3,-2.9 -1,-3.2 -0.9,-3.4 -0.6,-3.5 -0.4,-3.7 -0.1,-3.9 0.1,-4 0.3,-4.2 0.5,-4.2 0.8,-4.3 1,-4.4 1.2,-4.4 1.4,-4.4 1.6,-4.5 1.9,-4.4 2,-4.4 2.2,-4.3 2.4,-4.2 2.5,-4.2 2.7,-4 2.8,-3.9 3,-3.7 3,-3.6 3.2,-3.4 3.3,-3.2 3.3,-2.9 3.3,-2.8 3.4,-2.5 3.5,-2.2 3.4,-2 3.4,-1.7 3.4,-1.4 3.4,-1.2 3.3,-0.9 3.3,-0.5 3.1,-0.3 3.1,0 2.9,0.4 2.9,0.6 2.7,0.9 2.5,1.2 2.4,1.5 2.2,1.8 2,2 1.8,2.4 1.7,2.5 1.4,2.8 1.2,3 1,3.2 0.8,3.5 0.5,3.6 0.3,3.7 0.1,4 -0.2,4 -0.3,4.2 -0.6,4.2 -0.9,4.4 -1,4.4 -1.3,4.4 -1.5,4.4 -1.7,4.5 -1.9,4.4 -2.1,4.3 -2.2,4.3 -2.4,4.2 m 0,0 59.1,34.2 m 1.2,-85.5 1.9,1.3 2.2,1.7 2,2.1 1.9,2.3 1.6,2.5 1.4,2.8 1.2,3 1,3.3 0.8,3.4 0.5,3.6 0.3,3.8 0.1,3.9 -0.1,4.1 -0.4,4.1 -0.6,4.3 -0.8,4.3 -1.1,4.4 -1.3,4.4 -1.5,4.5 -1.7,4.4 -1.8,4.4 -2.1,4.4 -2.3,4.3 -2.4,4.2 m -128.7,4.8 -2.4,-1.4 -2.2,-1.7 -2,-2 -1.9,-2.3 -1.6,-2.4 -1.4,-2.8 -1.3,-3 -1,-3.1 -0.7,-3.4 -0.6,-3.6 -0.3,-3.7 -0.1,-3.9 0.1,-4 0.4,-4.1 0.6,-4.2 0.8,-4.3 1.1,-4.4 1.2,-4.4 1.5,-4.4 1.7,-4.4 1.9,-4.3 2,-4.3 2.3,-4.3 2.4,-4.2 2.6,-4 2.7,-4 2.9,-3.8 2.9,-3.6 3.1,-3.5 3.2,-3.2 3.2,-3.1 3.3,-2.8 3.4,-2.6 3.4,-2.4 3.4,-2.1 3.4,-1.8 3.4,-1.6 3.3,-1.2 3.4,-1 3.2,-0.7 3.2,-0.4 3.1,-0.1 2.9,0.2 2.9,0.5 2.7,0.8 2.6,1.1 2.4,1.4 2.2,1.6 2.1,2 1.9,2.1 1.7,2.5 1.5,2.7 1.2,2.9 1.1,3.1 0.8,3.4 0.6,3.5 0.4,3.7 0.1,3.9 -0.1,4 -0.3,4.1 -0.6,4.2 -0.8,4.2 -1,4.4 -1.2,4.4 -1.4,4.3 -1.7,4.4 -1.8,4.4 -2,4.3 -2.2,4.3 -2.4,4.2 m 0,0 -16.3,9.4 m -35.8,20.7 -17.1,9.8 m 69.6,-39 -16.7,9.6 M 1.4,-19.4 -16.1,-9.3 m 53.2,-38.8 0.1,-0.3 2.1,-4.3 2.2,-4.3 2.4,-4.1 2.6,-4.1 2.7,-3.9 2.9,-3.8 3,-3.7 3,-3.4 3.2,-3.3 3.3,-3.1 3.3,-2.8 0.1,-0.1 m 45,73.8 -15.2,8.8 M 1.4,-19.4 0.6,-17.1 0.1,-14.8 0,-12.6 m 1.4,-9.1 -0.6,1.5 m 0.6,-1.5 0,2.3 m 12.9,-21.3 2.9,-1.6 3.2,-1.4 3.3,-1.2 3.5,-1.1 3.6,-1 3.8,-0.7 3.9,-0.6 3.9,-0.4 4,-0.2 3.9,-0.1 0.3,0 M 0,-20.7 l 0,-1.5 0.4,-2.3 0.7,-2.2 1,-2.3 1.3,-2.1 1.6,-2.1 1.9,-2.1 2.2,-1.9 2.5,-1.8 2.7,-1.7 m 0,133.1 2.9,-1.6 3.2,-1.4 3.3,-1.3 3.5,-1.1 3.6,-0.9 3.8,-0.8 3.9,-0.5 3.9,-0.4 4,-0.2 3.9,-0.1 4,0.2 4,0.3 3.9,0.6 3.7,0.7 3.7,0.9 3.6,1.1 3.3,1.2 3.2,1.4 3,1.5 2.8,1.6 2.5,1.8 2.3,1.9 1.9,2 1.7,2.1 1.4,2.2 1.1,2.2 0.8,2.2 0.4,2.3 0.1,2.3 -0.2,2.3 -0.5,2.3 -0.8,2.3 -1.2,2.2 -1.5,2.1 -1.7,2.1 -2.1,1.9 -2.3,1.9 -2.6,1.8 -2.8,1.6 -3.1,1.5 -3.2,1.3 -3.4,1.2 -3.6,1 -3.7,0.9 -3.8,0.7 -3.9,0.5 -4,0.3 -3.9,0.1 -4,-0.1 -4,-0.3 -3.9,-0.4 -3.9,-0.6 -3.7,-0.8 -3.6,-1 -3.5,-1.2 -3.2,-1.3 -3.1,-1.4 -2.9,-1.6 -2.7,-1.7 L 8.5,128.3 6.4,126.4 4.6,124.3 3,122.2 1.8,120 0.9,117.8 0.3,115.5 0,113.2 l 0,-2.3 0.4,-2.3 0.7,-2.3 1,-2.2 1.3,-2.2 1.6,-2.1 1.9,-2 2.2,-1.9 2.5,-1.8 2.7,-1.7 m 22.9,-132.5 0,-2.3 m 2.6,-0.3 -2.6,0.3 m 60.6,29.8 0,-0.2 -0.2,-2.3 -0.6,-2.3 -0.8,-2.3 -1.2,-2.2 -1.4,-2.2 -1.8,-2 -2.1,-2 -2.3,-1.9 -2.6,-1.8 -2.8,-1.6 -3.1,-1.5 -3.2,-1.3 -3.5,-1.2 -3.6,-1.1 -3.7,-0.8 -3.9,-0.7 -3.9,-0.5 -4,-0.3 -4,-0.1 -4,0.1 -4,0.3 -3.9,0.4 M 19.3,95.3 22,93.8 l 3,-1.3 3.1,-1.1 3.3,-1 3.4,-0.8 3.5,-0.6 3.6,-0.5 3.7,-0.2 3.7,-0.1 3.7,0.1 3.7,0.3 3.6,0.5 3.5,0.7 3.4,0.9 3.2,1 3.1,1.2 2.9,1.3 2.7,1.5 2.4,1.6 2.2,1.7 1.9,1.8 1.6,1.9 1.3,2 1,2.1 0.7,2.1 0.4,2.1 0,2.1 -0.2,2.2 -0.7,2.1 -0.9,2 -1.2,2.1 -1.6,1.9 -1.8,1.9 -2.1,1.7 -2.4,1.6 -2.6,1.6 -2.9,1.3 -3,1.2 -3.2,1.1 -3.4,0.9 -3.4,0.7 -3.6,0.6 -3.7,0.3 -3.7,0.2 -3.7,-0.1 -3.6,-0.2 -3.7,-0.4 -3.5,-0.5 -3.5,-0.8 -3.3,-0.9 -3.2,-1.1 -3,-1.3 -2.8,-1.4 -2.5,-1.6 -2.3,-1.6 -2.1,-1.8 -1.7,-1.9 -1.5,-1.9 -1.2,-2.1 -0.8,-2 -0.6,-2.2 -0.2,-2.1 0.2,-2.1 0.4,-2.1 0.8,-2.1 1.1,-2.1 1.4,-1.9 1.7,-1.9 1.9,-1.8 2.3,-1.7 2.5,-1.6" />
      </g>
    </g>
  </g>
</svg>
